<!DOCTYPE svg PUBLIC "-//W3C//DTD SVG 1.1//EN" "http://www.w3.org/Graphics/SVG/1.1/DTD/svg11.dtd">
<!-- Uploaded to: SVG Repo, www.svgrepo.com, Transformed by: SVG Repo Mixer Tools -->
<svg width="256px" height="256px" viewBox="-11.52 -11.52 87.04 87.04" id="icons" xmlns="http://www.w3.org/2000/svg" fill="#fffafa" stroke="#fffafa" stroke-width="4.096" transform="rotate(0)">
<g id="SVGRepo_bgCarrier" stroke-width="0" transform="translate(0,0), scale(1)">
<path transform="translate(-11.52, -11.52), scale(5.44)" fill="#5866fd" d="M9.166.33a2.25 2.25 0 00-2.332 0l-5.25 3.182A2.25 2.25 0 00.5 5.436v5.128a2.25 2.25 0 001.084 1.924l5.25 3.182a2.25 2.25 0 002.332 0l5.25-3.182a2.25 2.25 0 001.084-1.924V5.436a2.25 2.25 0 00-1.084-1.924L9.166.33z" strokewidth="0"/>
</g>
<g id="SVGRepo_tracerCarrier" stroke-linecap="round" stroke-linejoin="round" stroke="#fafafa" stroke-width="3.7119999999999997">
<defs>
<style>.cls-1{fill:#231f20;}</style>
</defs>
<title/>
<path class="cls-1" d="M52,7H12a6,6,0,0,0-6,6V51a6,6,0,0,0,6,6H52a6,6,0,0,0,6-6V13A6,6,0,0,0,52,7Zm2,44a2,2,0,0,1-2,2H12a2,2,0,0,1-2-2V13a2,2,0,0,1,2-2H52a2,2,0,0,1,2,2Z"/>
<path class="cls-1" d="M45,29a2,2,0,0,0,0-4H22.83l2.58-2.59a2,2,0,0,0-2.82-2.82l-6,6a2,2,0,0,0-.44,2.18A2,2,0,0,0,18,29Z"/>
<path class="cls-1" d="M47,36H20a2,2,0,0,0,0,4H42.17l-2.58,2.59a2,2,0,1,0,2.82,2.82l6-6a2,2,0,0,0,.44-2.18A2,2,0,0,0,47,36Z"/>
</g>
<g id="SVGRepo_iconCarrier">
<defs>
<style>.cls-1{fill:#231f20;}</style>
</defs>
<title/>
<path class="cls-1" d="M52,7H12a6,6,0,0,0-6,6V51a6,6,0,0,0,6,6H52a6,6,0,0,0,6-6V13A6,6,0,0,0,52,7Zm2,44a2,2,0,0,1-2,2H12a2,2,0,0,1-2-2V13a2,2,0,0,1,2-2H52a2,2,0,0,1,2,2Z"/>
<path class="cls-1" d="M45,29a2,2,0,0,0,0-4H22.83l2.58-2.59a2,2,0,0,0-2.82-2.82l-6,6a2,2,0,0,0-.44,2.18A2,2,0,0,0,18,29Z"/>
<path class="cls-1" d="M47,36H20a2,2,0,0,0,0,4H42.17l-2.58,2.59a2,2,0,1,0,2.82,2.82l6-6a2,2,0,0,0,.44-2.18A2,2,0,0,0,47,36Z"/>
</g>
</svg>